<?xml version="1.0" encoding="UTF-8"?>
<svg width="750px" height="750px" viewBox="0 0 750 750" version="1.1" xmlns="http://www.w3.org/2000/svg" xmlns:xlink="http://www.w3.org/1999/xlink">
    <!-- Generator: Sketch 51.3 (57544) - http://www.bohemiancoding.com/sketch -->
    <title>Artboard</title>
    <desc>Created with Sketch.</desc>
    <defs/>
    <g id="Artboard" stroke="none" stroke-width="1" fill="none" fill-rule="evenodd">
        <g id="cat-body" transform="translate(235.000000, 242.000000)" fill-rule="nonzero" stroke="#000000">
            <path d="M134.695313,30.6992188 C77.3203125,45.3847656 32.7203776,77.3317057 0.895507812,126.540039 C40.0478516,136.306966 156.844401,164.270182 351.285156,210.429688 C346.972656,186.247396 338.927083,162.729167 327.148438,139.875 C327.148438,120.564453 329.980469,126.765625 334.730469,102.320313 C339.480469,77.875 339.480469,67.4277344 334.730469,64.0195313 C331.563802,61.7473958 319.134115,67.4270833 297.441406,81.0585938 C265.480469,51.1302083 228.226563,34.34375 185.679688,30.6992188 C165.429688,8.74609375 165.429688,0.453125 158.15625,0.453125 C153.307292,0.453125 145.486979,10.5351562 134.695313,30.6992188 Z" id="Path" stroke-width="5" stroke-linecap="round"/>
            <ellipse id="Oval-Copy" fill="#000000" transform="translate(218.461213, 135.711343) rotate(27.000000) translate(-218.461213, -135.711343) " cx="218.461213" cy="135.711343" rx="6.53391678" ry="9"/>
            <ellipse id="Oval-Copy-2" fill="#000000" transform="translate(109.118228, 101.998461) rotate(22.000000) translate(-109.118228, -101.998461) " cx="109.118228" cy="101.998461" rx="6.97393625" ry="8.31760425"/>
            <path d="M132.763672,109.830078 C132.889974,117.57487 138.769531,118.789062 150.402344,113.472656 C155.095703,124.279297 161.591797,127.855469 170.927734,124.279297" id="Path-2" stroke-width="5" stroke-linecap="round"/>
        </g>
        <g id="neutral-arms" transform="translate(232.000000, 365.000000)" fill="#FFFFFF" fill-rule="nonzero" stroke="#000000" stroke-linecap="round" stroke-width="5">
            <path d="M6,0.765625 C-3.80664062,13.953125 1.67578125,32.6660156 13.8046875,36.1777344 C24.6845004,39.3277994 48.3022816,32.5575823 79.4355469,20.8828125 C83.0099058,19.5424514 90.1281429,18.1819953 93.9667969,19.5869141" id="left-arm"/>
            <path d="M228.677734,45.1015625 C213.505859,63.8424479 210.759115,77.1126302 220.4375,84.9121094 C226.445854,89.7540357 240.459422,91.1515055 254.667969,87.8867188 C274.790572,83.2630222 296.520452,72.2032237 306.960938,73.5117187" id="right-arm"/>
        </g>
        <path d="M-11.5,308.5 L235.5,368.014357 M586.061138,452.481648 L789.5,501.5" id="Line" stroke="#000000" stroke-width="5" stroke-linecap="round" fill-rule="nonzero"/>
    </g>
</svg>